<?xml version="1.0" encoding="UTF-8"?>
<svg id="barbarian-icon" xmlns="http://www.w3.org/2000/svg" viewBox="0 0 62.49 72">
  <defs>
    <style>
      .cls-1 {
        fill: #d4c098;
      }
    </style>
  </defs>
  <path class="cls-1" d="M59.81,18.1c-.52,1.04-1.21,3.11-1.75,3.9-1.04,1.52-3.3,3.45-3.3,3.45,0,0,1.82-5.77,1.94-8.94.13-3.28.04-4.52.67-6.54.56-1.8,2.94-5.4,2.94-5.4-3.54-.09-5.31,1.35-7.58,3.48-4.27-4.05-9.68-6.91-15.7-8.05,6.54,5.64,6.37,19.48-3.16,21.66l.26-5.46.67-.48-3.57-4.76-3.63,4.73.73.51.33,5.43c-3.87-1.28-6.53-3.73-7.13-7.45-.31-3.59,1.78-6.78,1.78-6.78,0,0-1.87.83-3.56,1.94l-.89.51s1.76-3.8,3.17-5.76c.7-.97,2.1-2.64,3.34-4.08C14.4,2.1,5.47,9.94,1.81,20.27c1.72-1.6,3.43-3.12,4.47-3.85,3.03-2.14,5.16-2.43,5.16-2.43C9.9,15.53,1.39,24.81.06,29.23c-.34,1.45.71,9.22,2.07,12.71.25,0,2.11-.47,5.29-2.84,2.97-2.21,4.68-2.15,4.68-2.15,0,0-3.38,4.25-4.29,6.81-.76,2.14-1.26,5.17-1.01,6.44,3.81,4.48,9.53,8.54,15.29,10.31-7.69-6.69-8.42-22.53,2.03-27.77,3.36-1.56,5.75-2.43,8.98-3.57,4.83-1.72,8.93-5.7,8.93-5.7,0,0-.98,4.39-4.23,6.84-2.25,1.61-6.24,2.78-8.62,3.9-2.41,1.13-4.25,3.22-4.25,3.22,0,0,1.99-.28,4.11-.39v14.54h-1.11v16.65h1.45c-.03,1.05-.17,2.36.2,3.26.35.53,1.08.48,1.68.51.58,0,1.36.04,1.79-.26l.06-.05c.47-.44.33-3.16.33-3.46h1.43v-16.65h-1.13v-14.38c4.22.43,7.99,3.72,8.68,5.35l2.38-2.02s0,.02.01.03c2.71-2.36,5.83-5.02,5.83-5.02-.04.83-3.01,8.35-4.58,10.44.47,5.63-1.86,11.27-5.65,14.53,17.17-4.72,27.19-25.9,19.41-42.42"/>
</svg>