<?xml version="1.0" encoding="UTF-8"?>
<svg id="bard-icon" xmlns="http://www.w3.org/2000/svg" viewBox="0 0 69.43 72">
  <defs>
    <style>
      .cls-1 {
        fill: #d9c49a;
      }
    </style>
  </defs>
  <path class="cls-1" d="M46.24,9.41s1.61-1.62,1.67-3.39c0,0-1.13-2.77-5.03-2.68,0,0-1,1.57.16,4.47,0,0,2.71,1.24,3.19,1.6M50.38,22.2h0c0-1.48-1.2-2.68-2.68-2.68h-1.7l-1.55,26.14v.04s-.03.06-.03.06c0,0-.21,1.68-1.25,1.68-.48,0-.71-1.42-.71-1.42l-.22-26.5h-4.67l-1.49,32.61v.04s-.02.03-.02.03c-.03.05-.63,1.31-1.21,1.87h-.27c-.59-.56-1.19-1.82-1.21-1.87l-.02-.03v-.04s-1.49-32.61-1.49-32.61h-4.67l-.22,26.5s-.22,1.42-.71,1.42c-1.04,0-1.25-1.68-1.25-1.68l-.03-.06v-.04s-1.55-26.14-1.55-26.14h-1.7c-1.48,0-2.68,1.2-2.68,2.68,0,0-8.13,6.72-8.13,7.83v8.86s.06.95.93,1.92c.87.97,19.73,19.78,22.87,21.77,3.14-1.98,22-20.8,22.87-21.77.87-.97.93-1.92.93-1.92v-8.86c0-1.11-8.14-7.83-8.14-7.83M64.28,11.45c-.09-1.67-1.01-3.52-3.36-3.52-3.43,0-4.64,2.32-4.64,2.32,0,0-.39,6.09,0,7.01.24.57,4.35,3.66,7.46,5.94l4.35-3.7-.88,21.32v1.04c0,.92-1.55,2.47-1.55,2.47,0,0-20.4,16.25-23.02,18.47-2.61,2.22-7.92,9.18-7.93,9.19,0,0-5.32-6.96-7.93-9.19-2.61-2.22-23.02-18.47-23.02-18.47,0,0-1.55-1.55-1.55-2.47v-1.04l-.88-21.32,4.35,3.7c3.11-2.28,7.22-5.38,7.46-5.94.39-.92,0-7.01,0-7.01,0,0-1.21-2.32-4.64-2.32-2.34,0-3.27,1.85-3.36,3.52.54-.9,1.53-1.51,2.66-1.51.71,0,1.36.24,1.89.64h.01c.77.42,1.28,1.18,1.36,2.05.11,1.19.18,2.89-.16,3.91,0,0-4.24,2.61-4.68,2.66-.44.05-4.98-3.77-4.98-4.01s-.77-5.37-1.26-6.29c0,0,3.53-4.98,8.46-6.58,0,0,6.87,1.35,10.59,6.72v4.41c0,1.48,1.2,2.68,2.68,2.68h1.5l-.26-4.44s1.27-1.1,4.31-2.29l-.06,6.73h4.49l-.36-7.85c.65-.16,1.35-.3,2.09-.44.42-.08.85-.12,1.28-.12s.86.04,1.28.12c.74.14,1.43.29,2.08.44l-.36,7.85h4.49l-.06-6.73c3.04,1.19,4.31,2.29,4.31,2.29l-.26,4.44h1.5c1.48,0,2.68-1.2,2.68-2.68v-4.41c3.72-5.37,10.59-6.72,10.59-6.72,4.93,1.6,8.46,6.58,8.46,6.58-.48.92-1.26,6.04-1.26,6.29s-4.54,4.06-4.98,4.01c-.43-.05-4.68-2.66-4.68-2.66-.34-1.02-.27-2.71-.16-3.91.08-.87.59-1.64,1.36-2.05h.01c.52-.41,1.18-.65,1.89-.65,1.13,0,2.12.61,2.66,1.51M26.38,7.81c1.16-2.9.16-4.47.16-4.47-3.9-.09-5.03,2.68-5.03,2.68.07,1.76,1.67,3.39,1.67,3.39.48-.36,3.19-1.6,3.19-1.6M30.51,1.5s1.22-1.5,4.21-1.5,4.21,1.5,4.21,1.5c-.29,3.27-2.43,4.63-2.43,4.63h-3.55s-2.14-1.36-2.43-4.63"/>
</svg>