<?xml version="1.0" encoding="UTF-8"?>
<svg id="cleric-icon" xmlns="http://www.w3.org/2000/svg" viewBox="0 0 64.52 72">
  <defs>
    <style>
      .cls-1 {
        fill: #d9c49a;
      }
    </style>
  </defs>
  <path class="cls-1" d="M63.22,39.76c-1.64-.32-8.24-1.94-9.73-7.26-1.7-6.09,2.62-16.52,2.62-16.52,0,0-9.59,4.65-14.2,2.6C35.25,15.59,32.26,0,32.26,0c0,0-2.99,15.59-9.66,18.57-4.61,2.06-14.2-2.6-14.2-2.6,0,0,4.32,10.44,2.62,16.52-1.49,5.32-8.09,6.94-9.73,7.26-.23.04-1.3.07-1.3.07,0,0,9.01,1.2,12.73,7.68,0,0,2.64,5.18,1.4,13.37l8.43-9.76c-2.87-2.14-5.02-5.2-5.99-8.74-.2-.72-.72-1.32-1.4-1.64l-1.91-.9,1.5-.71c1.13-.53,1.26-2.11,1.26-2.11h0c.17-2.65.97-5.12,2.26-7.28.41-.69.49-1.52.21-2.27l-1.21-2.6,2.33.84c.87.33,1.84.16,2.58-.42,1.95-1.54,4.26-2.65,6.79-3.17.96-.2,1.74-.88,2.02-1.81l1.26-4.12,1.26,4.12c.29.93,1.07,1.62,2.02,1.81,2.53.52,4.83,1.63,6.79,3.17.73.58,1.7.75,2.58.42l2.33-.84-1.21,2.6c-.28.75-.2,1.59.21,2.27,1.29,2.15,2.09,4.63,2.26,7.28h0s.13,1.57,1.26,2.11l1.5.71-1.91.9c-.68.32-1.2.92-1.4,1.64-.98,3.55-3.12,6.61-5.99,8.74l8.43,9.76c-1.23-8.18,1.4-13.37,1.4-13.37,3.72-6.48,12.73-7.68,12.73-7.68,0,0-1.07-.02-1.3-.07M41.64,63.58l4.88,2.76.7-5.61-8.68-9.96,3.1,12.8ZM17.01,60.74l.7,5.61,4.88-2.76,3.1-12.8-8.68,9.96ZM38.36,47.89l2.26.73-.75-3.43c-.16-.45-.13-.94.09-1.37.21-.41.4-.84.54-1.29.17-.51.55-.91,1.05-1.09l4.01-1.62-4.36-1.75c-.29-.11-.52-.35-.6-.65-.18-.64-.43-1.24-.75-1.81-.15-.27-.17-.6-.03-.88l1.46-3.93-3.44,1.23c-.56.26-1.2.27-1.76,0-1.26-.59-1.5-1.4-1.5-1.4l-2.32-7.58-2.32,7.58s-.24.82-1.5,1.4c-.55.27-1.2.27-1.76,0l-3.44-1.23,1.46,3.93c.13.28.12.61-.03.88-.31.57-.57,1.17-.75,1.81-.09.3-.31.54-.6.65l-4.36,1.75,4.01,1.62c.5.18.89.58,1.05,1.09.15.45.33.88.54,1.29.22.42.25.92.09,1.37l-.75,3.43,2.26-.73c.86-.43,1.86-.44,2.74-.07.46.19.94.35,1.44.46l1.92,4.61,1.92-4.61c.5-.11.98-.27,1.44-.46.88-.37,1.88-.36,2.74.07M36.3,55.44c-.82,1.44-1.86,3.01-1.89,4.67l-.22,11.9,6.38-5.77-3.12-12.36-1.16,1.57ZM30.11,60.1l.22,11.9-6.38-5.77,3.12-12.36,1.16,1.57c.82,1.44,1.86,3.01,1.89,4.67"/>
</svg>