<?xml version="1.0" encoding="UTF-8"?>
<svg id="druid-icon" xmlns="http://www.w3.org/2000/svg" viewBox="0 0 56.33 72">
  <defs>
    <style>
      .cls-1 {
        fill: #d9c49a;
      }
    </style>
  </defs>
  <path class="cls-1" d="M49.51,42.98c4.09,4.73,3.16,10.99,1.11,16.4-.79,2.69-1.72,5.32-3.38,7.62-3.04,4.18-6.99,5.69-11.96,4.72-1.81-.35-3.06-.72-3.51-2.7-1.04-4.56-9.08-9.55-4.51-13.95.94-.53,2.3-.15,3.06.01,8.15,2.03,6.86-10.29,14.49-11.04-1.39-4.46-13.01-10.19-21.27-2.5-2.58,2.4-2.44,7.53.99,9.78,2.86-4.37,5.7-8.87,13.03-8.74-7.69,3.64-12.57,8.4-13.8,16.38-3.76-.98-3.28-3.14-9.85-5.06,3.74-1.21,5.85,1.6,8.2,2.2.28-3.32-1.43-4.85-4.22-5.78-3.83-1.28-6.87-.88-10.58,3.23,5.88,5.58,5.75,11.37,15.2,7.31,5.16.9,4.85,10.46-.9,10.84-4.18.7-8.6.27-11.11-3.58-3.82-4.45-6.7-10.11-7.61-15.93-.33-2.1-.2-3.95,1.07-5.55,5.72-7.23,13.67-13.8,23.25-14.66,8.84-.78,17.11,4.1,22.32,11.01ZM15.8,32.11c6.78-1.38,8.11-12.84,3.82-17.13-2.43-2.43-5.72-.36-7.12,1.3-3.95,3.86-2.79,14.81,3.3,15.83ZM31.56,27.43c3.4-3.18,3.05-10.38,1.4-14.34-1.61-3.6-6.49-3.46-7.98.22-2.17,4.51-1.38,10.86,2.04,14.18,1.25,1.22,3.19.91,4.54-.07ZM45.76,26.15c.15-2.96-.38-12.07-4.61-12.37-4.02-.09-5.15,5.49-5.13,8.81,0,1.63.09,3.4.86,5.08,2.02,4.63,8.84,4.21,8.88-1.52ZM51.25,26.87c-6.91.68-5.2,13.23.96,13.94,7.44,1.1,3.33-13.12-.96-13.94ZM6.81,21.43c-1.03-1.36-.34-3.19-1.08-5.48-2.1,2.45-3.41,4.5-2.29,7.42,1.51-.1,2.47-.68,3.37-1.94ZM7.51,26.21C1.18,21.93-1.46,34.4.8,37.03c.48,1.71,1.66,3.07,2.99,3.21,4.88-.57,7.25-11.65,3.73-14.03ZM16.71,11.3c-.94-1.9-.38-3.9-.82-6.91-2.88,2.73-4.2,4.92-3.44,8.79,1.77.13,2.98-.45,4.26-1.87ZM30.07,7.53c-1.49-1.94-.31-4.56-1.38-7.53-2.68,3.08-4.57,5.78-2.99,9.56,1.85.35,3.02-.4,4.37-2.03ZM39.29,11.2c1.24,1.15,2.33,1.54,3.81,1.25.19-3.53-1.69-5.45-4.44-7.6-.02,2.73,1.2,4.57.63,6.35ZM53.4,25.95c-.1-2.97-1.43-4.86-3.23-7.06-.44,2.37.48,4.09-.36,5.58,1.06,1.13,2.08,1.58,3.59,1.48Z"/>
</svg>