<?xml version="1.0" encoding="UTF-8"?>
<svg id="fighter-icon" xmlns="http://www.w3.org/2000/svg" viewBox="0 0 72 72">
  <defs>
    <style>
      .cls-1 {
        fill: #d9c49a;
      }
    </style>
  </defs>
  <path class="cls-1" d="M4.43,53.32C-3.08,39.64-1.04,22.13,10.54,10.54,15.58,5.51,21.73,2.28,28.2.85c0,0,0,0,0,0,.29-.06.59-.13.88-.18.04,0,.09-.02.13-.03.26-.05.52-.1.79-.14.04,0,.09-.02.13-.02.29-.05.58-.09.87-.13.01,0,.02,0,.03,0,.62-.09,1.25-.16,1.87-.21.02,0,.05,0,.08,0,.28-.02.55-.04.83-.06.05,0,.1,0,.16,0,.26-.01.52-.03.78-.04.05,0,.09,0,.14,0,.92-.03,1.84-.02,2.76.02.05,0,.1,0,.16,0,.25.01.5.03.75.05.06,0,.13,0,.19.01.25.02.5.04.75.06.05,0,.1,0,.16.02.61.06,1.22.14,1.83.23.03,0,.07.01.1.02.26.04.52.08.78.13.07.01.14.03.22.04.23.04.45.09.68.13.08.02.15.03.23.05.24.05.47.1.71.16.06.01.11.03.17.04.59.14,1.17.29,1.76.46.07.02.14.04.21.06.22.06.44.13.65.2.09.03.17.06.26.09.2.07.41.14.61.21.09.03.17.06.26.09.23.08.45.16.67.25.06.02.11.04.17.06.28.11.57.22.85.34.04.02.08.03.12.05.24.1.47.2.7.3.09.04.17.08.26.12.19.09.38.17.57.26.09.05.19.09.28.14.19.09.37.18.56.28.09.04.18.09.26.13.22.12.44.23.67.35.04.02.09.05.13.07.26.15.53.3.79.45.07.04.14.08.21.13.19.11.38.23.57.35.09.06.18.11.27.17.17.11.34.22.51.33.09.06.19.12.28.18.18.12.35.24.52.36.08.06.16.11.24.17.25.18.5.36.75.54-2.1-.59-4.26-.93-6.43-1.03-.93-.04-1.86-.04-2.79,0-1.24.06-2.47.21-3.7.43-5.5,1.01-10.77,3.64-15.03,7.9,0,0,0,0,0,0-4.01,4.01-6.58,8.92-7.71,14.08-1.25-3.55-1.72-7.32-1.41-11.03-2.82,1.45-5.46,3.36-7.82,5.72C4.44,31.35,1.72,42.89,4.43,53.32ZM19.05,57.95c2.17-.82,4-2.35,5.19-4.34,1.42-1.85,3.48-.32,3.49-.32l3.82,3.47c.37.37.62.85.71,1.36l.34,1.87c.09.51.72.7,1.08.34,2.78-.62,3.45-1.29,4.07-4.07.12-.53-.23-1.06-.77-1.16l-1.43-.26c-.52-.09-.99-.34-1.36-.71l-3.47-3.82,1.46-1.46c.35-.35.46-.87.29-1.33l-.44-1.16,18.12-14.69c.19-.16.42-.35.66-.57-.32-1.68-.8-3.32-1.45-4.92l-2.2-5.43,4.93,3.18c1.16.75,2.26,1.58,3.29,2.49,1.09-1.21,2.11-2.44,2.87-3.46.57-.77,1.04-1.62,1.4-2.52l5.43-13.5-13.5,5.43c-.89.36-1.74.83-2.52,1.4-2.86,2.12-7.26,6.31-8.71,8.1l-14.69,18.12-1.16-.44c-.46-.18-.98-.06-1.33.28l-1.46,1.46-3.82-3.47c-.37-.37-.62-.85-.71-1.36l-.26-1.43c-.1-.54-.62-.89-1.16-.77-2.78.62-3.46,1.29-4.07,4.07-.36.36-.17.99.34,1.08l1.87.34c.52.09.99.34,1.36.71l3.47,3.82s1.53,2.06-.32,3.48c-1.99,1.19-3.52,3.02-4.34,5.19l-.35.93c-.33.88-.96,1.61-1.75,2.11-1.03.65-1.92,1.76-2.2,2.87-.09.36-.27.69-.55.94l-2.29-.42c-.47-.08-.91.21-1.02.67-.54,2.34.26,3.93.74,4.62.05.07.09.13.15.2.1.13.17.2.17.2,0,0,.07.07.2.17.06.05.13.1.2.15.69.48,2.27,1.27,4.62.74.46-.11.76-.56.67-1.02l-.42-2.29c.25-.27.58-.46.94-.55,1.11-.28,2.22-1.17,2.87-2.2.5-.8,1.23-1.42,2.11-1.76l.93-.35ZM65.18,14.91c1.93,8.17.71,16.94-3.65,24.36-1.17-3.81-3.26-7.41-6.28-10.43-1.3-1.3-2.7-2.42-4.19-3.38,1.22,3.02,1.9,6.2,2.04,9.41.27,2.92-.06,5.88-.98,8.69,0,0,0,.01,0,.02-1.24-2.14-2.77-4.16-4.6-5.99-.48-.48-.98-.95-1.49-1.39,2.63,8.26.67,17.67-5.89,24.22-6.23,6.23-15.03,8.31-22.98,6.25,2.22,1.37,4.56,2.47,6.96,3.3h-.01c.29.1.57.19.86.29.04.01.09.03.13.04.35.11.7.22,1.05.31.04.01.09.03.13.04.36.1.71.19,1.08.28.04,0,.08.02.11.03.36.09.73.17,1.1.25.03,0,.07.01.1.02.37.08.75.15,1.12.21.03,0,.05,0,.08.02.38.07.76.12,1.15.18.02,0,.04,0,.06,0,.39.05.78.1,1.17.14.01,0,.02,0,.04,0,.4.04.8.08,1.2.1h.01c3.29.23,6.6,0,9.85-.67.03,0,.05,0,.08-.02.34-.07.68-.15,1.02-.23.06-.01.12-.03.18-.04.31-.08.62-.16.93-.24.09-.02.17-.05.26-.07.29-.08.58-.17.86-.26.11-.03.21-.07.32-.1.27-.09.54-.18.81-.27.12-.04.24-.08.36-.13.25-.09.51-.19.76-.28.13-.05.27-.1.4-.16.24-.1.48-.19.72-.29.14-.06.29-.12.43-.19.23-.1.45-.2.68-.31.15-.07.31-.14.46-.22.22-.1.43-.21.64-.32.16-.08.32-.16.48-.25.2-.11.41-.22.61-.33.17-.09.33-.19.5-.28.19-.11.39-.22.58-.34.17-.1.34-.21.51-.31.18-.11.37-.23.55-.35.18-.11.35-.23.52-.35.18-.12.35-.23.52-.35.18-.13.36-.25.53-.38.16-.12.33-.23.49-.36.19-.14.37-.28.55-.43.15-.12.3-.23.45-.35.19-.16.39-.32.58-.48.14-.11.27-.23.41-.34.21-.19.42-.38.63-.57.11-.1.22-.2.33-.3.32-.3.63-.6.94-.91.43-.43.84-.86,1.24-1.31.02-.02.03-.04.05-.05,0,0,0,0,0,0,11.47-12.7,12.28-31.61,2.43-45.19Z"/>
</svg>