<?xml version="1.0" encoding="UTF-8"?>
<svg id="monk-icon" xmlns="http://www.w3.org/2000/svg" viewBox="0 0 50.02 72">
  <defs>
    <style>
      .cls-1 {
        fill: #d9c49a;
      }
    </style>
  </defs>
  <path class="cls-1" d="M32.74,63.08c.14,3.09.18,6.2.02,8.92l-18.7-9.19c.28-.32.6-.64.95-.95,1.72-1.49,3.96-2.92,6.5-4.3l11.23,5.52ZM24.37,56.08l8.21,4.04c-.18-2.7-.41-5.28-.63-7.43-2.58,1.07-5.16,2.21-7.58,3.39ZM7.39,38.15c1.43,2.63,3.1,3.92,4.2,4.87,1.8-.94,3.69-1.88,5.62-2.83,6.23-3.08,13.02-6.43,17.41-10.49,0-.99-.02-2.07-.06-3.23-.03-.89-.18-1.77-.2-2.65-.05-2.65.18-4.99.34-5.6.22-.81-.22-5.17-2.07-5.29-.29-.02-.56-.02-.8,0-.06,0-.12.02-.18.03-.7.15-1.17.81-1.19,1.53l-.17,6.49c-.01.46-.09.91-.23,1.35l-.28.9-.28-.9c-.14-.44-.21-.9-.23-1.35l-.3-14.04c-.15-.82-.01-3.7-2.17-3.7-.89,0-1.75.6-1.85,2.13l-.31,12.23c-.01.46-.09.91-.23,1.35l-.28.9-.28-.9c-.14-.44-.22-.9-.23-1.35l-.3-14.92C22.98,0,21.96-.05,20.82.01c-.01,0-.03,0-.04,0-1.02-.02-1.45.95-1.84,2.08l-.39,15.51c-.01.46-.09.91-.23,1.35l-.28.9-.28-.9c-.14-.44-.21-.9-.23-1.35l-.36-12.71c-.18-2.51-1.26-2.39-2.26-2.33-2.17.13-2.38,5.58-2.42,6.51-.1,1.98-.25,10.12-.25,10.12,0,0-.18,9.17-.25,10.58-.41-.43-.99-2.24-.99-2.24.34-.58,1.03-4.83-.62-6.55-1.65-1.73-3.35-.71-3.35-.71,0,2.15-1.02,5.33-1.42,6.02-.4.69-.41,2.85-.41,2.85.97,1.02,1.17,3.79,1.22,5.35.03.8.97,3.66.97,3.66ZM24.81,48.5c-3.63,1.52-7.13,3-10.14,4.57-1.64,1.09-3.16,2.21-4.62,3.37-9.11,7.26-2.47,13.81.11,15.56-.03-1.31-3.58-6.26,3.17-12.1,4.78-4.13,12.94-7.76,21.43-11.15,11.41-4.55,12.56-11.28,13.03-13.97-5.42,6.34-14.59,10.19-22.98,13.71ZM36.26,2.05c2.69,2.55,8.28,12.85,5.01,22.54-4.12,12.19-26.78,17.94-36.42,25.61-9.11,7.26-2.79,14.31-1.73,15.86-.03-1.31-2.51-5.48,4.25-11.31,10.85-9.38,38.93-12.57,42.27-29.27,2.69-13.45-9.47-21.33-13.38-23.43Z"/>
</svg>