<?xml version="1.0" encoding="UTF-8"?>
<svg id="paladin-icon" xmlns="http://www.w3.org/2000/svg" viewBox="0 0 72 55.75">
  <defs>
    <style>
      .cls-1 {
        fill: #d9c49a;
      }
    </style>
  </defs>
  <path class="cls-1" d="M57.02,36.16s14.23-2.63,14.98-15.83c0,0-6.96,5.76-11.91,7.7,0,0,10.3-8.11,6.74-19.09,0,0-5.11,8.85-10.29,13.07,2.02-2.12,3.55-4.25,4.17-6.24,2.82-9.08-.07-14.31-1.73-15.77,0,0-4.7,18.91-14.88,26.77l-8.09,5.61-8.09-5.61C17.73,18.91,13.02,0,13.02,0c-1.67,1.46-4.56,6.69-1.73,15.77.62,1.99,2.15,4.12,4.17,6.24-5.19-4.22-10.29-13.07-10.29-13.07-3.56,10.98,6.74,19.09,6.74,19.09-4.95-1.94-11.91-7.7-11.91-7.7.75,13.2,14.98,15.83,14.98,15.83-6.66,1.58-11.45-2.16-11.45-2.16,1.75,5.26,7.42,8.41,10.55,8.83,3.13.42,4.29,1.39,4.29,1.39-1.75.06-6.83-.53-6.83-.53,6.04,6.54,10.39,3.93,10.39,3.93,3.43,3.99,10.43,8.13,10.43,8.13,0,0-10.24-15.16-10.75-17.25-.51-2.09-1.18-11.98-1.18-11.99.17.14.35.28.53.42,0,0,.77,4.49,2.11,10.01,1.34,5.52,12.95,18.52,12.95,18.52,0,0,11.61-13,12.95-18.52,1.34-5.52,2.11-10.01,2.11-10.01.18-.14.35-.28.53-.42,0,0-.67,9.9-1.18,11.99-.51,2.09-10.75,17.25-10.75,17.25,0,0,6.99-4.14,10.43-8.13,0,0,4.35,2.62,10.39-3.93,0,0-5.08.58-6.83.53,0,0,1.15-.98,4.29-1.39,3.13-.42,8.8-3.57,10.55-8.83,0,0-4.79,3.74-11.45,2.16ZM46.46,35.11s-2.27,6.6-10.46,15.25c-8.19-8.65-10.46-15.25-10.46-15.25v-4.75c5.5,3.85,10.46,6.59,10.46,6.59,0,0,4.96-2.74,10.46-6.59v4.75ZM25.58,22.62s-5.78-7.62-7.55-13.66l6.61,1.63c.89.22,1.84,0,2.54-.61l7.7-6.72c.64-.56,1.59-.56,2.23,0l7.7,6.72c.7.6,1.64.83,2.54.61l6.61-1.63c-1.77,6.04-7.55,13.66-7.55,13.66l2.31-8.76c.02-.06-.04-.11-.1-.09l-3.03,1.26c-.49.2-1.05.12-1.45-.22l-7.06-5.94c-.63-.53-1.55-.53-2.18,0l-7.06,5.94c-.4.34-.96.43-1.45.22l-3.03-1.26c-.06-.02-.12.03-.1.09l2.31,8.76Z"/>
</svg>