<?xml version="1.0" encoding="UTF-8"?>
<svg id="ranger-icon" xmlns="http://www.w3.org/2000/svg" viewBox="0 0 72 72">
  <defs>
    <style>
      .cls-1 {
        fill: #d9c49a;
      }
    </style>
  </defs>
  <path class="cls-1" d="M36,55.22c3.74,0,7.31-1.06,10.38-3.04l-.02,4.61c-1.76.88-3.63,1.53-5.56,1.94l-4.79,13.28-4.79-13.28c-4.38-.91-8.4-3.07-11.64-6.31-3.23-3.23-5.39-7.25-6.31-11.62L0,36l13.25-4.78c.49-2.36,1.34-4.62,2.53-6.7.03.03.05.06.07.09.52.6,1.53,1.43,3.34,2.01-1.58,2.83-2.43,6.03-2.43,9.37,0,5.14,2,9.97,5.64,13.61,3.63,3.63,8.47,5.64,13.61,5.64ZM26.6,19.19c2.91-1.63,6.15-2.45,9.4-2.45,4.93,0,9.86,1.88,13.61,5.63s5.64,8.47,5.64,13.61c0,3.75-1.07,7.33-3.06,10.41l4.61-.02c.88-1.76,1.54-3.63,1.94-5.57l13.26-4.79-13.25-4.78c-.91-4.39-3.07-8.43-6.32-11.68s-7.27-5.41-11.66-6.32L36,0l-4.77,13.22c-2.37.49-4.63,1.35-6.72,2.55.04.04.08.07.12.11.59.53,1.41,1.53,1.98,3.31ZM65.78,58.68l-5.44.12,2.29,2.29c.43.43.43,1.12,0,1.54s-1.12.43-1.54,0l-2.29-2.29-.12,5.44-9.85-9.85.02-5.53-2.91-2.91c-1.95,1.69-4.34,2.9-7.01,3.42-.5.1-.96.35-1.33.74l-1.88,1.92-2.05-2.1c-.33-.34-.77-.59-1.27-.71-6.82-1.67-11.59-7.73-11.59-14.75,0-3.77,1.37-7.26,3.7-9.94l-1.27-1.27c-3.83-.15-5.21-1.41-5.57-1.84-.96-.99-1.26-2.4-.89-3.64-1.58-1.15-3.5-1.89-4.99-.41,0,0-5.37-7.33-8.97-16.07,8.74,3.59,16.07,8.97,16.07,8.97-1.49,1.49-.74,3.41.41,4.99,1.25-.37,2.66-.07,3.65.9.41.35,1.68,1.76,1.83,5.56l1.27,1.27c1.78-1.54,3.93-2.68,6.35-3.27.49-.12.93-.37,1.27-.71l2.05-2.1,1.88,1.92c.37.38.84.64,1.33.73,7.1,1.39,12.26,7.66,12.26,14.9,0,3.75-1.39,7.25-3.71,9.93l2.92,2.92,5.53-.02,3.35,3.35-4.6.28,1.47.95,4.1-.26,2.04,2.04-4.6.28,1.47.95,4.1-.26,2.54,2.54ZM43.46,45.01l-5.2-5.2c-.67.39-1.44.62-2.27.62-2.47,0-4.46-2-4.46-4.46,0-.83.23-1.6.62-2.27l-5.16-5.16c-1.7,2.06-2.71,4.69-2.71,7.45,0,4.77,2.99,9.15,7.44,10.9.96.37,2.06.13,2.8-.63l1.18-1.2,1.33,1.36c.7.72,1.75.98,2.68.67,1.4-.47,2.66-1.18,3.74-2.09ZM36,37.59c.89,0,1.62-.72,1.62-1.62s-.72-1.62-1.62-1.62-1.62.72-1.62,1.62.72,1.62,1.62,1.62ZM47.7,36c0-5.03-3.21-9.49-7.98-11.09-.93-.31-1.98-.05-2.68.67l-1.33,1.36-1.18-1.21c-.74-.76-1.84-1.01-2.8-.63-1.18.46-2.25,1.11-3.2,1.9l5.15,5.15c.67-.41,1.46-.64,2.3-.64,2.47,0,4.46,2,4.46,4.46,0,.84-.24,1.63-.64,2.3l5.19,5.19c1.7-2.05,2.69-4.67,2.69-7.47Z"/>
</svg>