<?xml version="1.0" encoding="UTF-8"?>
<svg id="rogue-icon" xmlns="http://www.w3.org/2000/svg" viewBox="0 0 70.73 72">
  <defs>
    <style>
      .cls-1 {
        fill: #d9c49a;
      }
    </style>
  </defs>
  <path class="cls-1" d="M30.74,48.6c-5.12,4.12-28.67,23.23-28.89,23.37-.05-.05-.11-.1-.16-.15.14-.24,22.52-28.34,24.49-30.8.74-.93.79-.96-.16-1.72-2.4-1.96-4.84-3.73-7.24-5.72,1.97-.2,3.31-1.13,2.59-3.16-.5-1.35-1.76-2.25-2.84-3.13-1.12-.94-1.92-2.05-3.05-1.12-1.12.93-8.2,6.68-6.98,8.8-2.73-.91-7.15-1.56-8.5-1.82,8.5-4.86,10.02-7.29,12.14-9.41.46-.46.91-.91.5-1.35-.49-.81-3.68-.69-2.38-2.07,1.23-1.27,1.19-1.23,0-2.53-1.38-1.5-2.77-3.03-3.84-4.78-.38-.62-.38-1.2-.56-1.89-.3-1.16-3.02-1.18-3.96-1.28-2.02-.22-1.22-2.61-.44-3.79.47-.7,1.07-1.3,1.67-1.89.87-.86,4.54-2.74,4.78-.44.1.94.12,3.85,1.24,4.19,3.07.35,5.32,2.82,7.33,4.96.5.54.78.54,1.24,0,1.25-1.42,1.26-1.4,2.02.35.13.3.32.58.42.89.23.73.58.65,1.11.29C26.72,10.68,31.57,2.78,32.77,0c.08.25.97,6.07,1.36,8.61-1.46.27-2.81.97-3.84,2-1.64,1.65-4.33,4.25-6.3,6.14-1.52,1.45-1.6,3.26-.23,4.82,2.12,2.43,4.16,4.86,6.31,7.29-1.6-.06-2.97,1.45-2.74,3.03.08.62.21,1.74.28,2.2.23,1.7,1.39,2.96,3.07,3.41.03,2.17.05,5.94.05,11.12ZM44.72,39.3c2.4-1.96,4.84-3.73,7.24-5.72-1.97-.2-3.31-1.12-2.59-3.16.5-1.35,1.76-2.24,2.84-3.13,1.12-.94,1.92-2.05,3.05-1.12,1.12.93,8.2,6.68,6.98,8.8,2.73-.91,7.15-1.56,8.5-1.82-8.5-4.86-10.02-7.29-12.14-9.41-.46-.46-.91-.91-.5-1.35.49-.81,3.68-.7,2.38-2.07-1.23-1.27-1.19-1.23,0-2.53,1.38-1.51,2.77-3.03,3.84-4.78.38-.62.38-1.2.56-1.89.3-1.16,3.02-1.18,3.96-1.28,2.02-.22,1.22-2.61.44-3.79-.47-.7-1.07-1.3-1.67-1.89-.87-.85-4.54-2.73-4.78-.44-.1.94-.12,3.85-1.24,4.2-3.07.35-5.32,2.82-7.33,4.96-.5.54-.78.53-1.24,0-1.25-1.42-1.26-1.4-2.02.35-.13.3-.32.58-.42.89-.23.73-.58.65-1.11.29-5.43-3.73-10.29-11.62-11.49-14.4-.08.25-.96,6-1.35,8.55,1.57.23,3.04.95,4.13,2.05,1.64,1.65,4.33,4.25,6.3,6.14,1.52,1.45,1.6,3.25.23,4.82-2.12,2.43-4.16,4.86-6.31,7.29,1.61-.02,2.96,1.51,2.73,3.1-.07.6-.21,1.68-.27,2.13-.23,1.7-1.39,2.96-3.07,3.41-.03,2.07-.07,5.9-.1,11.32,5.56,4.47,28.17,23,28.38,23.13.05-.05.11-.1.16-.15-.14-.24-22.26-28.3-24.24-30.77-.75-.93-.79-.96.16-1.72ZM38.56,54.05v16.78c0,.65-.53,1.18-1.18,1.18h-3.72c-1.42-.08-1.15-1.45-1.18-2.44h-2.12c-.03.89.29,2.4-1.04,2.44h-3.81c-1.52,0-2.3-1.37-2.13-2.78.05.03,3.04-3.01,3.16-3.12.55-.55.55-1.43,0-1.98l-2.9-2.9c-.08-.08-.17-.16-.26-.23-.16-1.51.43-2.91,2.13-2.97h3.81c1.33.04,1.01,1.55,1.04,2.44h2.12v-6.43c0-.49.3-.9.72-1.08,0-6.12,0-14.03-.07-16.77-.1-1.74-2.75-.24-3.07-2.45-.06-.46-.21-1.64-.27-2.16-.02-.14.09-.27.24-.27.48,0,1.48-.03,1.78-.04.86-.03,1.12-.22,1.21-1.06.17-1.43-.52-2.37-1.39-3.34-2.04-2.28-3.99-4.64-6.01-6.94-.49-.56-.48-.88.08-1.42,1.65-1.58,4.52-4.35,6.34-6.18.93-.94,2.21-1.41,3.49-1.41s2.55.47,3.49,1.4c1.82,1.82,4.69,4.6,6.34,6.18.56.53.57.86.08,1.42-2.02,2.3-3.97,4.65-6.01,6.94-.87.98-1.56,1.92-1.39,3.34.1.84.35,1.02,1.21,1.06.29.01,1.2.03,1.71.04.18,0,.32.16.3.34-.07.56-.2,1.65-.26,2.09-.33,2.21-2.98.71-3.07,2.45-.05,2.09-.11,9.43-.15,16.75.46.16.8.59.8,1.11ZM37.58,23.49l2.87-2.87c.55-.55.55-1.43,0-1.98l-2.9-2.9c-1.04-1.04-2.72-1.04-3.76,0l-2.9,2.9c-.55.55-.55,1.43,0,1.98l2.87,2.87c1.06,1.06,2.77,1.06,3.82,0Z"/>
</svg>