<?xml version="1.0" encoding="UTF-8"?>
<svg id="sorcerer-icon" xmlns="http://www.w3.org/2000/svg" viewBox="0 0 60.92 72">
  <defs>
    <style>
      .cls-1 {
        fill: #d9c49a;
      }
    </style>
  </defs>
  <path class="cls-1" d="M59.63,39.83c-.93-1.86-2.77-3.75-2.36-5.96.34-1.82,1.59-3.48,2-5.31.6-2.62-.7-4.82-2.43-6.62-1.74-1.8-4.07-2.92-6.36-4.01,1.91,3.06,1.9,6.69,1.18,7.93-1.07,1.84-3.67.96-4.83-.25-3.92-4.08-2.58-11.48,2.23-14.32-3.56-2.54-9.45-.7-10.83,3.38-.57,1.68-.54,4.13-2.21,5.23-1.69,1.12-3.82.14-3.75-1.97.05-1.38.91-2.62,1.62-3.75,1.65-2.64,3.25-5.56,2.33-8.75-.71-2.48-2.81-4.25-5.32-4.93C29.66.16,28.35,0,27.06,0c-.16,0-1.5.18-1.47.21,1.55,1.01,2.24,2.94,1.22,4.55-.6.94-1.51,1.57-2.5,2.08-.69.35-1.41.64-2.1.94-5.61,2.44-11.79,5.45-13.27,11.84-.65,2.81-.15,5.6.52,8.32.72,2.93-.56,4.09-2.49,2.76-2.53-1.75-1.81-5.52-.81-8.38C1.86,23.6-.91,28.47.27,32.68c.69,2.46,2.49,4.54,2.96,7.05.73,3.92-1.88,7.46-.52,11.37,1.05,3.03,3.89,4.7,6.27,6.67,2.73,2.26,3.97,5.5,6.1,8.24,3.87,4.96,11,6.35,17.38,5.92,3.94-.26,7.99-1.15,11.09-3.52,3.05-2.34,5.03-5.75,7.85-8.33,3.32-3.03,7.06-5.73,8.66-10.04,1.23-3.32,1.15-7.02-.45-10.21ZM38.96,58.2c-.01.2-.03.39-.05.59-.06.5-.16.99-.29,1.47-.27.95-.7,1.86-1.28,2.67-.29.41-.62.79-.98,1.15-.72.7-1.53,1.23-2.41,1.6-1.05.44-2.18.65-3.32.66-3.99.01-8.05-2.5-8.93-6.53-.11-.5-.16-1-.18-1.5,0-.25,0-.5,0-.76.07-1.26.39-2.52.86-3.69.46-1.14,1.17-2.48,1.98-3.86.2-.34.41-.69.63-1.03.64-1.03,1.31-2.06,1.96-3.01.21-.32.43-.63.63-.92.93-1.34,1.73-2.45,2.21-3.11.05-.07.1-.14.15-.2.09-.12.16-.22.21-.29.05-.07.08-.11.09-.13,0,0,0,0,0,0,.07.1,1.35,1.68,2.89,3.81.66.91,1.37,1.93,2.05,2.97,1.37,2.08,2.63,4.27,3.21,5.97.13.39.24.78.33,1.18.04.2.08.4.12.6.13.8.18,1.6.13,2.39ZM53.4,45.89c-.31,3.55-2.31,6.55-4.7,8.98,2.08-3.27,3.8-7.37,2.37-11.15-.48-1.18-1.06-2.4-1.83-3.43-.09.7-.26,1.38-.56,2-.82,1.76-2.76,2.88-4.66,2.84-2.75-.01-4.72-2.06-5.03-4.74-.37-3.06.52-5.04-2.28-7.05-1.2-.94-3.58-1.75-5.01-2.37-4.1-1.58-7.47-4.43-8.56-8.86-.29-1.12-.38-2.3-.28-3.46-2.09,1.33-4.02,2.85-5.17,5.06-1.15,2.26-.75,4.76-.05,7.14,1.1,3.73,1.71,6.78-.77,10.2-.77,1.13-1.8,2.06-2.61,3.12-2.37,2.87-3.22,6.19-1.67,9.74-3.24-4.55-1.41-9.12,1.46-13.26.5-.76,1.13-1.41,1.45-2.06.34-.67.56-1.37.63-2.13.12-2.67-1.09-4.93-1.51-7.76-.15-.99-.19-2.04-.06-3.07.64-5.14,5.44-8.28,9.54-10.59,0,0,3.16-1.83,3.16-1.83l-1.41,3.37c-1.36,3.16-.22,7.03,2.22,9.37,2.62,2.67,7.05,3.22,10.09,5.41,1.98,1.38,3.17,3.54,3.15,5.89.04,1.06,0,1.98.11,2.79.1.69.32,1.44.83,1.92.91.95,2.68.92,3.63.03,1.18-1.14,1.01-2.84.88-4.42l-.28-2.56,2.16,1.38c1.65,1.05,2.8,2.55,3.7,4.14.86,1.63,1.16,3.52,1.05,5.35Z"/>
</svg>