<?xml version="1.0" encoding="UTF-8"?>
<svg id="warlock-icon" xmlns="http://www.w3.org/2000/svg" viewBox="0 0 65.98 72">
  <defs>
    <style>
      .cls-1 {
        fill: #d9c49a;
      }
    </style>
  </defs>
  <path class="cls-1" d="M52.24,55.61c-.29.48-.6.94-.93,1.39l5.23,12.71-12.23-6.37c-1.08.63-2.22,1.17-3.41,1.61l-.6,6.89-4.34-5.68c-.94.12-1.89.19-2.85.19s-1.82-.06-2.71-.17l-3.97,5.82-.99-7c-1.23-.45-2.41-1.01-3.53-1.65l-12.13,6.3,5.18-12.57c-.38-.52-.73-1.05-1.06-1.6l-13.91-3.78,10.72-8.02c.04-3.59.94-6.98,2.48-9.97.12-.23.24-.46.37-.69.05-.08.09-.16.14-.24.16-.28.33-.55.5-.83.04-.06.08-.13.13-.19.18-.27.36-.55.55-.81.05-.07.1-.14.15-.21.18-.25.37-.49.55-.72.07-.09.14-.18.21-.26.16-.19.32-.38.49-.57.11-.12.21-.24.32-.36.07-.08.15-.16.23-.24,3.37-3.57,7.9-6.03,12.98-6.78l-1.65,7.46c-6.13,2.07-10.55,7.86-10.55,14.69,0,.09,0,.18,0,.26,0,.1,0,.21,0,.3,0,0,0,0,0,0,.3,8.3,7.12,14.93,15.48,14.93,7.31,0,13.43-5.06,15.07-11.86,2.81-2.22,5.2-5.11,6.84-8.33.32,1.51.5,3.08.5,4.69,0,.03,0,.06,0,.09l10.47,7.91-13.74,3.66ZM0,20.05l10.47,7.91s0,.06,0,.09c0,1.61.17,3.18.5,4.69,1.64-3.22,4.02-6.07,6.83-8.29,1.62-6.83,7.75-11.9,15.08-11.9,8.39,0,15.21,6.66,15.49,14.98,0,.09,0,.18,0,.27,0,.08,0,.16,0,.24,0,.13,0,.26-.01.39,0,.06,0,.13,0,.19,0,.15-.01.3-.02.45,0,.04,0,.08,0,.12-.1,1.35-.37,2.65-.79,3.89,0,.02-.01.04-.02.05-.05.14-.1.28-.15.43-.03.08-.06.16-.1.24-.06.15-.12.29-.18.44-.07.16-.14.31-.21.46-.02.04-.04.08-.05.12-.17.35-.34.68-.54,1.02,0,0,0,0,0,0-1.87,3.23-4.88,5.72-8.47,6.92l-1.71,7.47c5.21-.75,9.84-3.29,13.24-6.98,0,0,.02-.02.03-.03.19-.21.38-.42.56-.64.1-.12.2-.24.3-.36.03-.04.06-.08.09-.12.89-1.11,1.68-2.3,2.35-3.57.01-.03.03-.05.04-.08.14-.25.26-.51.39-.77.1-.2.19-.41.28-.61.02-.05.05-.1.07-.16,1.14-2.64,1.78-5.53,1.82-8.58l10.73-8.02-13.91-3.78c-.33-.55-.69-1.08-1.06-1.6l5.18-12.57-12.13,6.3c-1.12-.65-2.3-1.21-3.53-1.66l-.99-7-3.97,5.82c-.89-.11-1.79-.17-2.71-.17-.97,0-1.92.07-2.85.19L25.67.16l-.59,6.89c-1.19.44-2.33.98-3.41,1.61L9.43,2.29l5.23,12.71c-.32.45-.64.91-.93,1.39L0,20.05ZM36.8,36.07l-3.83-17.13-3.8,17.16,3.73,16.97,3.9-17ZM21.31,38.38c-.79,1.68-1.26,3.6-1.26,5.58,0,.9.09,1.81.27,2.65,2.77,1.88,5.98,3.14,9.44,3.62l-1.63-7.42c-2.66-.85-5-2.4-6.82-4.43ZM44.67,33.62c.79-1.68,1.25-3.58,1.25-5.57,0-.91-.1-1.82-.27-2.67-2.79-1.89-6.03-3.16-9.53-3.63l1.66,7.41c2.68.85,5.06,2.4,6.89,4.45Z"/>
</svg>