<?xml version="1.0" encoding="UTF-8"?>
<svg id="wizard-icon" xmlns="http://www.w3.org/2000/svg" viewBox="0 0 72 68.01">
  <defs>
    <style>
      .cls-1 {
        fill: #d9c49a;
      }
    </style>
  </defs>
  <path class="cls-1" d="M27.72,12.1c-2.06-3.19-.37-8.71,3.67-9.28-1.35,2.42-.78,4.2.6,5.86-1.33,1.31-2.99,2.51-4.27,3.42ZM37.25,53.47l2.26-2.26c.06-6.3,1.87-11.17,6.08-15.24-4.63-3.01-8.11-7.67-9.56-13.15v-.09s0,.03-.01.04c0-.01,0-.03-.01-.04v.09c-1.46,5.47-4.93,10.14-9.56,13.15,4.21,4.07,6.03,8.94,6.08,15.24l2.21,2.21v-14.36l-1.99-3.08,3.29-3.29,3.21,3.29-1.99,3.14v14.35ZM38.18,20.02c6.6,5.19,11.17,10.77,7.95,19.04-1.52,4.45-3.89,6.81-4.29,7.79,7.56-3.13,15.35-11.51,12.59-20.33-1.69-5.26-5.8-8.64-11.36-11.73-1.28,2.06-3.05,3.75-4.89,5.24ZM28.95,46.87c-.33-1.03-2.82-3.77-4.06-7.72-4.95-16.03,13.22-17.16,17.23-28.32C44.03,4.49,39.09-.31,34.27.02c6.38,5.47-1.13,11.6-5.66,14.53-4.27,3.03-8.96,6.19-10.83,11.59-3.07,8.55,4.16,16.98,11.17,20.73ZM72,38.9c0-.88-2.03-3.92-3.06-3.92l-2.15,1.44c-.1-.73-.48-1.57-1.19-2.45-1.59,2.81-3.79,4.02-3.79,4.02,1.36-2.38,1.76-4.33,1.65-5.92-1.32-.9-3.08-1.74-5.36-2.43.95,1.07.2,9.91-7,16.34-3.43,3.06-6.87,4.61-10.72,7.17-1.9,1.26-3.33,2.47-4.37,3.79-1.04-1.33-2.47-2.53-4.37-3.79-3.85-2.56-7.3-4.12-10.72-7.17-7.2-6.42-7.95-15.27-7-16.34-1.29.39-2.41.83-3.38,1.29-.31,1.6-.11,3.65,1.07,6.24,0,0-2.27-1.52-3.58-4.73-1.81,1.37-2.65,2.83-2.81,3.97l-2.15-1.44c-1.03,0-3.06,3.04-3.06,3.92,0,.07,31.82,26.41,31.82,26.41-.49,1.64.66,2.31,2.11,2.57,0,0,0,.02.01.02.02,0,.05,0,.09,0,.64.1,1.34.13,1.96.12.63.01,1.32-.01,1.96-.12.04,0,.07,0,.09,0,0,0,0,0,.01-.02,1.45-.25,2.61-.93,2.11-2.57,0,0,31.82-26.34,31.82-26.41Z"/>
</svg>